<svg width="269" height="52" viewBox="0 0 269 52" fill="none" xmlns="http://www.w3.org/2000/svg">
<path fill-rule="evenodd" clip-rule="evenodd" d="M19.7027 6.14124C17.2787 6.48326 15.2636 7.02302 13.1871 7.88641C10.7169 8.91336 9.2306 9.80456 7.37705 11.3697L5.95227 12.5732L11.4706 17.4993L12.7808 16.4334C15.5698 14.1644 18.7867 13.0545 22.5774 13.0532C26.8616 13.0516 30.215 14.3543 33.2434 17.1962C35.7505 19.5493 37.2014 22.6354 37.2102 25.6357C37.2174 27.9832 36.8051 30.3636 38.4427 31.977C39.3521 32.8728 42.6454 34.1666 43.0681 34.1666C43.4063 34.1666 44.5007 31.0378 44.8527 29.0638C45.2566 26.7993 45.0212 22.9479 44.3482 20.8096C42.105 13.6818 35.3518 7.95801 27.4094 6.45348C25.2671 6.04752 21.4596 5.89336 19.7027 6.14124ZM43.9748 6.22138C42.2056 6.47932 40.3808 6.89974 39.8468 7.17235C39.7388 7.22731 40.5393 8.06639 41.6253 9.03708C42.7114 10.0078 44.0016 11.3211 44.4926 11.9557L45.3851 13.1092L46.6716 12.991C48.1458 12.8556 51.3909 13.377 53.0765 14.0201C54.4868 14.5581 56.7971 15.9591 57.7444 16.8505L58.4726 17.5356L64.0219 12.6102L62.9789 11.6535C58.4608 7.50912 50.5834 5.25748 43.9748 6.22138ZM26.067 19.6717C24.8167 23.0394 24.5776 26.6644 25.3778 30.1162C26.8181 36.3274 31.8934 41.8708 38.4427 44.3858C41.309 45.4866 42.962 45.805 46.4586 45.9302C48.9175 46.0182 50.1649 45.9582 51.7474 45.6753C60.1923 44.1658 67.0063 38.4159 69.2273 30.9255C69.5557 29.8184 69.7739 28.2059 69.8635 26.2264L70 23.2132L50.3745 23.3278L50.2363 28.6925H55.9017C62.4239 28.6925 62.0461 28.5278 60.9637 30.8992C59.2634 34.6238 55.408 37.6362 51.0574 38.6399C49.16 39.0774 45.6121 39.082 43.7455 38.6493C39.896 37.7566 36.102 35.0397 34.4286 31.977C33.356 30.0137 32.7861 28.14 32.7861 26.577C32.7861 23.8905 33.5285 22.1532 31.5561 20.4812C30.2275 19.3548 27.405 17.9631 26.9831 17.9631C26.8281 17.9631 26.4159 18.7319 26.067 19.6717ZM0.136526 26.2264C0.227543 28.2416 0.444015 29.8201 0.78988 30.9916C2.96642 38.3658 9.75137 44.1158 18.0777 45.6431C21.5349 46.2773 26.1982 46.0509 29.5461 45.0865L30.3653 44.8505L28.3009 42.9573C27.1656 41.9161 25.8651 40.5962 25.4107 40.024L24.5849 38.9839H22.5098C17.8017 38.9839 13.6666 37.129 10.8847 33.7692C9.67683 32.3105 8.43285 29.9557 8.43285 29.128C8.43285 28.7058 8.60677 28.6925 14.0983 28.6925H19.7637L19.6255 23.3278L0 23.2132L0.136526 26.2264Z" fill="black"/>
<path d="M85.096 36C83.5813 36 82.3973 35.7867 81.544 35.36C80.6907 34.9333 80.0933 34.2933 79.752 33.44C79.4107 32.5867 79.24 31.5307 79.24 30.272V23.136C79.24 21.088 79.6987 19.584 80.616 18.624C81.5333 17.6427 83.0267 17.152 85.096 17.152H94.728C96.2 17.152 97.32 17.2373 98.088 17.408C98.8773 17.5573 99.272 17.7173 99.272 17.888L98.632 20.544C98.2693 20.48 97.192 20.416 95.4 20.352C93.6293 20.2667 91.048 20.224 87.656 20.224H86.024C84.3173 20.224 83.464 20.9813 83.464 22.496V30.656C83.464 31.3813 83.6453 31.9467 84.008 32.352C84.392 32.736 85.064 32.928 86.024 32.928H87.336C89.384 32.928 91.112 32.9173 92.52 32.896C93.928 32.8533 95.0907 32.8213 96.008 32.8V28.448L94.088 28.48L89.896 28.8V25.664H100.2V34.656L100.52 35.328C100.52 35.4987 100.072 35.6587 99.176 35.808C98.28 35.936 96.7653 36 94.632 36H85.096ZM104.678 36V18.272L104.358 15.712H108.582V36H104.678ZM116.324 36C114.895 36 113.828 35.712 113.124 35.136C112.441 34.56 112.1 33.6213 112.1 32.32V25.76C112.1 25.44 112.121 25.056 112.164 24.608C112.228 24.1387 112.377 23.68 112.612 23.232C112.868 22.784 113.284 22.4107 113.86 22.112C114.457 21.8133 115.279 21.664 116.324 21.664H125.156C126.223 21.664 127.044 21.8133 127.62 22.112C128.196 22.4107 128.601 22.784 128.836 23.232C129.092 23.68 129.241 24.1387 129.284 24.608C129.348 25.056 129.38 25.44 129.38 25.76V31.904C129.38 32.288 129.348 32.7147 129.284 33.184C129.241 33.6533 129.092 34.1013 128.836 34.528C128.58 34.9547 128.164 35.3067 127.588 35.584C127.012 35.8613 126.201 36 125.156 36H116.324ZM117.54 33.248H123.94C124.985 33.248 125.508 32.8213 125.508 31.968V25.696C125.508 24.8427 124.985 24.416 123.94 24.416H117.54C116.516 24.416 116.004 24.8427 116.004 25.696V31.968C116.004 32.8213 116.516 33.248 117.54 33.248ZM132.889 36V15.712H136.793V22.048C137.71 21.9413 138.787 21.856 140.025 21.792C141.283 21.7067 142.713 21.664 144.313 21.664H145.945C147.011 21.664 147.833 21.8027 148.409 22.08C148.985 22.3573 149.39 22.7093 149.625 23.136C149.881 23.5627 150.03 24.0107 150.073 24.48C150.137 24.9493 150.169 25.376 150.169 25.76V31.904C150.169 32.224 150.137 32.6187 150.073 33.088C150.03 33.536 149.881 33.984 149.625 34.432C149.39 34.88 148.985 35.2533 148.409 35.552C147.833 35.8507 147.011 36 145.945 36H144.313C142.542 36 140.995 35.9573 139.673 35.872C138.35 35.7653 137.251 35.6587 136.377 35.552L135.513 36H132.889ZM137.785 33.248H144.729C145.753 33.248 146.265 32.8213 146.265 31.968V25.696C146.286 25.2267 146.19 24.896 145.977 24.704C145.763 24.512 145.347 24.416 144.729 24.416H143.129C141.763 24.416 140.547 24.448 139.481 24.512C138.435 24.5547 137.539 24.608 136.793 24.672V32.256C136.793 32.704 136.835 32.9813 136.921 33.088C137.027 33.1947 137.315 33.248 137.785 33.248ZM157.829 36C156.208 36 155.035 35.6267 154.309 34.88C153.584 34.112 153.221 33.0667 153.221 31.744C153.221 30.3573 153.595 29.2907 154.341 28.544C155.109 27.7973 156.272 27.424 157.829 27.424H159.461C161.061 27.424 162.501 27.4667 163.781 27.552C165.061 27.6373 166.117 27.7227 166.949 27.808V25.696C166.949 25.504 166.928 25.312 166.885 25.12C166.843 24.9067 166.715 24.736 166.501 24.608C166.288 24.48 165.925 24.416 165.413 24.416H163.813C161.488 24.416 159.547 24.4587 157.989 24.544C156.432 24.608 155.376 24.672 154.821 24.736L154.469 22.304C154.469 22.0053 155.28 21.824 156.901 21.76C158.523 21.696 161.232 21.664 165.029 21.664H166.629C167.696 21.664 168.517 21.8133 169.093 22.112C169.669 22.4107 170.075 22.784 170.309 23.232C170.565 23.68 170.715 24.1387 170.757 24.608C170.821 25.056 170.853 25.44 170.853 25.76V36H168.229L166.981 35.36C166.085 35.5093 165.008 35.6587 163.749 35.808C162.491 35.936 161.051 36 159.429 36H157.829ZM158.661 33.248H165.989C166.459 33.248 166.736 33.2053 166.821 33.12C166.907 33.0347 166.949 32.768 166.949 32.32V29.856H158.661C158.085 29.856 157.68 29.9947 157.445 30.272C157.232 30.5493 157.125 30.9867 157.125 31.584C157.125 32.1813 157.253 32.608 157.509 32.864C157.765 33.12 158.149 33.248 158.661 33.248ZM174.865 36V18.272L174.545 15.712H178.769V36H174.865ZM195.815 36C194.3 36 193.116 35.7867 192.263 35.36C191.409 34.9333 190.812 34.2933 190.471 33.44C190.129 32.5867 189.959 31.5307 189.959 30.272V23.136C189.959 21.088 190.417 19.584 191.335 18.624C192.252 17.6427 193.745 17.152 195.815 17.152H205.447C206.919 17.152 208.039 17.2373 208.807 17.408C209.596 17.5573 209.991 17.7173 209.991 17.888L209.351 20.544C208.988 20.48 207.911 20.416 206.119 20.352C204.348 20.2667 201.767 20.224 198.375 20.224H196.743C195.036 20.224 194.183 20.9813 194.183 22.496V30.656C194.183 31.3813 194.364 31.9467 194.727 32.352C195.111 32.736 195.783 32.928 196.743 32.928H198.055C200.103 32.928 201.831 32.9173 203.239 32.896C204.647 32.8533 205.809 32.8213 206.727 32.8V28.448L204.807 28.48L200.615 28.8V25.664H210.919V34.656L211.239 35.328C211.239 35.4987 210.791 35.6587 209.895 35.808C208.999 35.936 207.484 36 205.351 36H195.815ZM219.204 36C217.583 36 216.41 35.6267 215.684 34.88C214.959 34.112 214.596 33.0667 214.596 31.744C214.596 30.3573 214.97 29.2907 215.716 28.544C216.484 27.7973 217.647 27.424 219.204 27.424H220.836C222.436 27.424 223.876 27.4667 225.156 27.552C226.436 27.6373 227.492 27.7227 228.324 27.808V25.696C228.324 25.504 228.303 25.312 228.26 25.12C228.218 24.9067 228.09 24.736 227.876 24.608C227.663 24.48 227.3 24.416 226.788 24.416H225.188C222.863 24.416 220.922 24.4587 219.364 24.544C217.807 24.608 216.751 24.672 216.196 24.736L215.844 22.304C215.844 22.0053 216.655 21.824 218.276 21.76C219.898 21.696 222.607 21.664 226.404 21.664H228.004C229.071 21.664 229.892 21.8133 230.468 22.112C231.044 22.4107 231.45 22.784 231.684 23.232C231.94 23.68 232.09 24.1387 232.132 24.608C232.196 25.056 232.228 25.44 232.228 25.76V36H229.604L228.356 35.36C227.46 35.5093 226.383 35.6587 225.124 35.808C223.866 35.936 222.426 36 220.804 36H219.204ZM220.036 33.248H227.364C227.834 33.248 228.111 33.2053 228.196 33.12C228.282 33.0347 228.324 32.768 228.324 32.32V29.856H220.036C219.46 29.856 219.055 29.9947 218.82 30.272C218.607 30.5493 218.5 30.9867 218.5 31.584C218.5 32.1813 218.628 32.608 218.884 32.864C219.14 33.12 219.524 33.248 220.036 33.248ZM241.488 36C239.867 36 238.757 35.6587 238.16 34.976C237.563 34.2933 237.264 33.2693 237.264 31.904V24.416H234.64V21.664H235.984C236.389 21.664 236.677 21.6 236.848 21.472C237.04 21.344 237.179 21.088 237.264 20.704L237.904 17.28H241.168V21.664H247.824V24.416H241.168V31.936C241.168 32.4693 241.296 32.8213 241.552 32.992C241.808 33.1627 242.192 33.248 242.704 33.248H247.216L247.536 35.68C247.088 35.744 246.405 35.8187 245.488 35.904C244.571 35.968 243.568 36 242.48 36H241.488ZM254.293 36C253.226 36 252.405 35.8613 251.829 35.584C251.253 35.3067 250.837 34.9547 250.581 34.528C250.346 34.1013 250.197 33.6533 250.133 33.184C250.09 32.7147 250.069 32.288 250.069 31.904V25.76C250.069 25.44 250.09 25.056 250.133 24.608C250.197 24.1387 250.346 23.68 250.581 23.232C250.837 22.784 251.253 22.4107 251.829 22.112C252.426 21.8133 253.247 21.664 254.293 21.664H261.173C262.581 21.664 263.679 21.8027 264.469 22.08C265.279 22.336 265.845 22.7627 266.165 23.36C266.506 23.9573 266.677 24.7573 266.677 25.76V30.496H261.077C259.157 30.496 257.589 30.4533 256.373 30.368C255.178 30.2827 254.378 30.2293 253.973 30.208V31.968C253.951 32.8213 254.463 33.248 255.509 33.248H257.141C258.293 33.248 259.413 33.2373 260.501 33.216C261.61 33.1733 262.623 33.1307 263.541 33.088C264.458 33.024 265.194 32.9707 265.749 32.928L267.029 35.008C267.029 35.6693 264.927 36 260.725 36H254.293ZM253.973 27.744H262.773V25.696C262.773 25.2693 262.719 24.9707 262.613 24.8C262.527 24.6293 262.25 24.5227 261.781 24.48C261.311 24.4373 260.511 24.416 259.381 24.416H255.509C254.485 24.416 253.973 24.8427 253.973 25.696V27.744Z" fill="black"/>
</svg>
