<svg width="192" height="122" viewBox="0 0 192 122" fill="none" xmlns="http://www.w3.org/2000/svg">
<path d="M53.8135 3.99217L53.8135 3.99215C57.3285 2.39358 60.7387 1.39382 64.8524 0.758967C66.3087 0.534232 68.6541 0.488439 71.1119 0.597329C73.565 0.706009 76.0858 0.96674 77.8861 1.33987L77.8861 1.33988C91.3198 4.12319 102.751 14.72 106.545 27.9063L107.025 27.7681L106.545 27.9063C107.108 29.861 107.494 32.6276 107.651 35.4454C107.808 38.2626 107.735 41.09 107.397 43.1642C107.1 44.9836 106.487 47.3506 105.876 49.2642C105.57 50.2212 105.268 51.0517 105.011 51.637C104.882 51.9315 104.771 52.1467 104.684 52.2814C104.631 52.2677 104.567 52.2496 104.493 52.2269C104.282 52.162 104.007 52.0652 103.686 51.9408C103.044 51.6925 102.234 51.3422 101.396 50.9389C100.558 50.5355 99.6986 50.0827 98.9569 49.6301C98.206 49.1719 97.6094 48.7343 97.2682 48.3667C95.9709 46.9688 95.4663 45.2235 95.2954 43.2352C95.1819 41.916 95.2166 40.5467 95.2526 39.1255C95.2717 38.3702 95.2912 37.6003 95.289 36.8155C95.2734 31.0472 92.7259 25.1393 88.3468 20.644L87.9886 20.9929L88.3468 20.644C83.0624 15.2201 77.1852 12.7217 69.7039 12.7247C63.0851 12.7272 57.4518 14.852 52.5775 19.189L52.5775 19.189L50.6797 20.8778L41.9299 12.3347L43.9856 10.4356C43.9856 10.4356 43.9857 10.4355 43.9857 10.4355C47.1212 7.5396 49.6236 5.8973 53.8135 3.99217ZM106.464 0.908844L106.385 0.415082L106.464 0.908839C117.643 -0.874532 130.984 3.30227 138.61 10.9533L138.964 10.6003L138.61 10.9533L140.04 12.3882L131.249 20.9224L130.349 19.9962C129.5 19.1224 128.069 18.0246 126.563 17.026C125.055 16.0257 123.431 15.0979 122.181 14.5763C120.688 13.9535 118.535 13.3997 116.449 13.0331C114.37 12.6677 112.292 12.4766 110.958 12.6106L110.958 12.6106L109.043 12.8031L107.681 10.8782C106.814 9.65168 104.577 7.16445 102.707 5.33697C101.782 4.43301 100.984 3.5946 100.442 2.97384C100.259 2.76303 100.109 2.58229 99.9953 2.43568C100.489 2.24441 101.244 2.01589 102.175 1.78115C103.436 1.46351 104.962 1.14845 106.464 0.908844ZM76.1598 25.7951L76.1598 25.795C76.4538 24.9289 76.7721 24.1487 77.0451 23.5918C77.1827 23.3111 77.3019 23.1014 77.3941 22.9687C77.3942 22.9685 77.3944 22.9683 77.3945 22.9681C77.4327 22.9801 77.4795 22.9958 77.5358 23.0165C77.7229 23.085 77.9657 23.1886 78.2539 23.324C78.829 23.5942 79.56 23.9794 80.3433 24.4323C81.9171 25.3424 83.6583 26.5008 84.7562 27.5189L85.0962 27.1522L84.7562 27.5189C86.3356 28.9833 86.8207 30.4512 86.9192 32.1822C86.9695 33.066 86.9184 34.0147 86.8517 35.0806C86.8463 35.1674 86.8407 35.2549 86.8352 35.3431C86.7728 36.3306 86.7047 37.4086 86.7047 38.5819C86.7047 41.6149 87.713 45.2061 89.5731 48.9302L89.5731 48.9303C92.5113 54.8116 99.1389 59.995 105.869 61.7021L105.992 61.2175L105.869 61.7022C107.527 62.1224 109.894 62.3238 112.241 62.3205C114.587 62.3172 116.967 62.109 118.649 61.6847L118.649 61.6846C126.257 59.7648 132.994 54.0105 135.971 46.8786C136.086 46.6033 136.196 46.3462 136.3 46.1041L136.314 46.071C136.412 45.8422 136.505 45.6257 136.589 45.4236C136.763 45.0049 136.911 44.6217 136.994 44.2833C137.076 43.95 137.114 43.5943 137 43.2612C136.878 42.9029 136.612 42.6597 136.274 42.4985C135.951 42.3444 135.536 42.2514 135.043 42.1891C134.543 42.126 133.926 42.0902 133.179 42.0698C132.075 42.0396 130.655 42.0424 128.863 42.0458C128.233 42.047 127.556 42.0484 126.831 42.0484H117.631L117.845 32.9864L150.479 32.7782L150.266 37.9039C150.113 41.6009 149.742 44.5814 149.193 46.6044L149.675 46.7353L149.193 46.6045C145.436 60.462 133.907 71.106 119.614 73.9005C116.953 74.4207 114.857 74.5338 110.663 74.3695C104.721 74.1367 101.947 73.5504 97.0953 71.5125C86.0149 66.8585 77.428 56.5955 74.9939 45.1142C73.6409 38.7307 74.045 32.0251 76.1598 25.7951ZM77.4787 22.8616C77.4884 22.8526 77.4873 22.8556 77.4761 22.8642C77.4771 22.8632 77.478 22.8623 77.4787 22.8616ZM31.7336 37.904L31.7336 37.9039L31.5213 32.7782L64.1553 32.9864L64.3688 42.0484H55.1685C50.4759 42.0484 48.0185 42.0541 46.7403 42.1616C46.4173 42.1887 46.1535 42.2235 45.94 42.2703C45.7307 42.3162 45.5376 42.3803 45.3777 42.4841C45.2015 42.5985 45.0799 42.7523 45.0152 42.9386C44.9587 43.1012 44.9563 43.2624 44.9563 43.365C44.9563 43.8405 45.1136 44.4733 45.3491 45.1575C45.5895 45.856 45.9292 46.6577 46.3312 47.4899C47.1342 49.1524 48.2014 50.9697 49.2608 52.3691C54.1267 58.7967 61.3646 62.3448 69.5881 62.3448H72.8907L74.1566 64.0887L74.5613 63.795L74.1567 64.0888C74.9597 65.1948 77.2124 67.6925 79.1617 69.6479L82.1198 72.6151L81.5002 72.8104C81.5002 72.8104 81.5002 72.8104 81.5002 72.8104C75.8416 74.593 67.933 75.0131 62.0887 73.8407C47.9971 71.0135 36.5175 60.3685 32.8368 46.729L32.8368 46.729C32.2578 44.584 31.889 41.6662 31.7336 37.904ZM104.608 52.3848C104.608 52.3851 104.608 52.3846 104.608 52.3846L104.608 52.3847C104.608 52.3849 104.608 52.3848 104.608 52.3848Z" fill="#4F3727" stroke="#DCC4AB"/>
<path d="M8.096 106C6.58133 106 5.39733 105.787 4.544 105.36C3.69067 104.933 3.09333 104.293 2.752 103.44C2.41067 102.587 2.24 101.531 2.24 100.272V93.136C2.24 91.088 2.69867 89.584 3.616 88.624C4.53333 87.6427 6.02667 87.152 8.096 87.152H17.728C19.2 87.152 20.32 87.2373 21.088 87.408C21.8773 87.5573 22.272 87.7173 22.272 87.888L21.632 90.544C21.2693 90.48 20.192 90.416 18.4 90.352C16.6293 90.2667 14.048 90.224 10.656 90.224H9.024C7.31733 90.224 6.464 90.9813 6.464 92.496V100.656C6.464 101.381 6.64533 101.947 7.008 102.352C7.392 102.736 8.064 102.928 9.024 102.928H10.336C12.384 102.928 14.112 102.917 15.52 102.896C16.928 102.853 18.0907 102.821 19.008 102.8V98.448L17.088 98.48L12.896 98.8V95.664H23.2V104.656L23.52 105.328C23.52 105.499 23.072 105.659 22.176 105.808C21.28 105.936 19.7653 106 17.632 106H8.096ZM27.6775 106V88.272L27.3575 85.712H31.5815V106H27.6775ZM39.324 106C37.8947 106 36.828 105.712 36.124 105.136C35.4413 104.56 35.1 103.621 35.1 102.32V95.76C35.1 95.44 35.1213 95.056 35.164 94.608C35.228 94.1387 35.3773 93.68 35.612 93.232C35.868 92.784 36.284 92.4107 36.86 92.112C37.4573 91.8133 38.2787 91.664 39.324 91.664H48.156C49.2227 91.664 50.044 91.8133 50.62 92.112C51.196 92.4107 51.6013 92.784 51.836 93.232C52.092 93.68 52.2413 94.1387 52.284 94.608C52.348 95.056 52.38 95.44 52.38 95.76V101.904C52.38 102.288 52.348 102.715 52.284 103.184C52.2413 103.653 52.092 104.101 51.836 104.528C51.58 104.955 51.164 105.307 50.588 105.584C50.012 105.861 49.2013 106 48.156 106H39.324ZM40.54 103.248H46.94C47.9853 103.248 48.508 102.821 48.508 101.968V95.696C48.508 94.8427 47.9853 94.416 46.94 94.416H40.54C39.516 94.416 39.004 94.8427 39.004 95.696V101.968C39.004 102.821 39.516 103.248 40.54 103.248ZM55.8888 106V85.712H59.7928V92.048C60.7101 91.9413 61.7874 91.856 63.0248 91.792C64.2834 91.7067 65.7128 91.664 67.3128 91.664H68.9448C70.0114 91.664 70.8328 91.8027 71.4088 92.08C71.9848 92.3573 72.3901 92.7093 72.6248 93.136C72.8808 93.5627 73.0301 94.0107 73.0728 94.48C73.1368 94.9493 73.1688 95.376 73.1688 95.76V101.904C73.1688 102.224 73.1368 102.619 73.0728 103.088C73.0301 103.536 72.8808 103.984 72.6248 104.432C72.3901 104.88 71.9848 105.253 71.4088 105.552C70.8328 105.851 70.0114 106 68.9448 106H67.3128C65.5421 106 63.9954 105.957 62.6728 105.872C61.3501 105.765 60.2514 105.659 59.3768 105.552L58.5128 106H55.8888ZM60.7848 103.248H67.7288C68.7528 103.248 69.2648 102.821 69.2648 101.968V95.696C69.2861 95.2267 69.1901 94.896 68.9768 94.704C68.7634 94.512 68.3474 94.416 67.7288 94.416H66.1288C64.7634 94.416 63.5474 94.448 62.4808 94.512C61.4354 94.5547 60.5394 94.608 59.7928 94.672V102.256C59.7928 102.704 59.8354 102.981 59.9208 103.088C60.0274 103.195 60.3154 103.248 60.7848 103.248ZM80.8293 106C79.2079 106 78.0346 105.627 77.3093 104.88C76.5839 104.112 76.2213 103.067 76.2213 101.744C76.2213 100.357 76.5946 99.2907 77.3413 98.544C78.1093 97.7973 79.2719 97.424 80.8293 97.424H82.4613C84.0613 97.424 85.5013 97.4667 86.7813 97.552C88.0613 97.6373 89.1173 97.7227 89.9493 97.808V95.696C89.9493 95.504 89.9279 95.312 89.8853 95.12C89.8426 94.9067 89.7146 94.736 89.5013 94.608C89.2879 94.48 88.9253 94.416 88.4133 94.416H86.8133C84.4879 94.416 82.5466 94.4587 80.9893 94.544C79.4319 94.608 78.3759 94.672 77.8213 94.736L77.4693 92.304C77.4693 92.0053 78.2799 91.824 79.9013 91.76C81.5226 91.696 84.2319 91.664 88.0293 91.664H89.6293C90.6959 91.664 91.5173 91.8133 92.0933 92.112C92.6693 92.4107 93.0746 92.784 93.3093 93.232C93.5653 93.68 93.7146 94.1387 93.7573 94.608C93.8213 95.056 93.8533 95.44 93.8533 95.76V106H91.2292L89.9813 105.36C89.0853 105.509 88.0079 105.659 86.7493 105.808C85.4906 105.936 84.0506 106 82.4293 106H80.8293ZM81.6613 103.248H88.9893C89.4586 103.248 89.7359 103.205 89.8213 103.12C89.9066 103.035 89.9493 102.768 89.9493 102.32V99.856H81.6613C81.0853 99.856 80.6799 99.9947 80.4453 100.272C80.2319 100.549 80.1253 100.987 80.1253 101.584C80.1253 102.181 80.2533 102.608 80.5093 102.864C80.7653 103.12 81.1493 103.248 81.6613 103.248ZM97.865 106V88.272L97.545 85.712H101.769V106H97.865ZM118.815 106C117.3 106 116.116 105.787 115.263 105.36C114.409 104.933 113.812 104.293 113.471 103.44C113.129 102.587 112.959 101.531 112.959 100.272V93.136C112.959 91.088 113.417 89.584 114.335 88.624C115.252 87.6427 116.745 87.152 118.815 87.152H128.447C129.919 87.152 131.039 87.2373 131.807 87.408C132.596 87.5573 132.991 87.7173 132.991 87.888L132.351 90.544C131.988 90.48 130.911 90.416 129.119 90.352C127.348 90.2667 124.767 90.224 121.375 90.224H119.743C118.036 90.224 117.183 90.9813 117.183 92.496V100.656C117.183 101.381 117.364 101.947 117.727 102.352C118.111 102.736 118.783 102.928 119.743 102.928H121.055C123.103 102.928 124.831 102.917 126.239 102.896C127.647 102.853 128.809 102.821 129.727 102.8V98.448L127.807 98.48L123.615 98.8V95.664H133.919V104.656L134.239 105.328C134.239 105.499 133.791 105.659 132.895 105.808C131.999 105.936 130.484 106 128.351 106H118.815ZM142.204 106C140.583 106 139.41 105.627 138.684 104.88C137.959 104.112 137.596 103.067 137.596 101.744C137.596 100.357 137.97 99.2907 138.716 98.544C139.484 97.7973 140.647 97.424 142.204 97.424H143.836C145.436 97.424 146.876 97.4667 148.156 97.552C149.436 97.6373 150.492 97.7227 151.324 97.808V95.696C151.324 95.504 151.303 95.312 151.26 95.12C151.218 94.9067 151.09 94.736 150.876 94.608C150.663 94.48 150.3 94.416 149.788 94.416H148.188C145.863 94.416 143.922 94.4587 142.364 94.544C140.807 94.608 139.751 94.672 139.196 94.736L138.844 92.304C138.844 92.0053 139.655 91.824 141.276 91.76C142.898 91.696 145.607 91.664 149.404 91.664H151.004C152.071 91.664 152.892 91.8133 153.468 92.112C154.044 92.4107 154.45 92.784 154.684 93.232C154.94 93.68 155.09 94.1387 155.132 94.608C155.196 95.056 155.228 95.44 155.228 95.76V106H152.604L151.356 105.36C150.46 105.509 149.383 105.659 148.124 105.808C146.866 105.936 145.426 106 143.804 106H142.204ZM143.036 103.248H150.364C150.834 103.248 151.111 103.205 151.196 103.12C151.282 103.035 151.324 102.768 151.324 102.32V99.856H143.036C142.46 99.856 142.055 99.9947 141.82 100.272C141.607 100.549 141.5 100.987 141.5 101.584C141.5 102.181 141.628 102.608 141.884 102.864C142.14 103.12 142.524 103.248 143.036 103.248ZM164.488 106C162.867 106 161.757 105.659 161.16 104.976C160.563 104.293 160.264 103.269 160.264 101.904V94.416H157.64V91.664H158.984C159.389 91.664 159.677 91.6 159.848 91.472C160.04 91.344 160.179 91.088 160.264 90.704L160.904 87.28H164.168V91.664H170.824V94.416H164.168V101.936C164.168 102.469 164.296 102.821 164.552 102.992C164.808 103.163 165.192 103.248 165.704 103.248H170.216L170.536 105.68C170.088 105.744 169.405 105.819 168.488 105.904C167.571 105.968 166.568 106 165.48 106H164.488ZM177.293 106C176.226 106 175.405 105.861 174.829 105.584C174.253 105.307 173.837 104.955 173.581 104.528C173.346 104.101 173.197 103.653 173.133 103.184C173.09 102.715 173.069 102.288 173.069 101.904V95.76C173.069 95.44 173.09 95.056 173.133 94.608C173.197 94.1387 173.346 93.68 173.581 93.232C173.837 92.784 174.253 92.4107 174.829 92.112C175.426 91.8133 176.247 91.664 177.293 91.664H184.173C185.581 91.664 186.679 91.8027 187.469 92.08C188.279 92.336 188.845 92.7627 189.165 93.36C189.506 93.9573 189.677 94.7573 189.677 95.76V100.496H184.077C182.157 100.496 180.589 100.453 179.373 100.368C178.178 100.283 177.378 100.229 176.973 100.208V101.968C176.951 102.821 177.463 103.248 178.509 103.248H180.141C181.293 103.248 182.413 103.237 183.501 103.216C184.61 103.173 185.623 103.131 186.541 103.088C187.458 103.024 188.194 102.971 188.749 102.928L190.029 105.008C190.029 105.669 187.927 106 183.725 106H177.293ZM176.973 97.744H185.773V95.696C185.773 95.2693 185.719 94.9707 185.613 94.8C185.527 94.6293 185.25 94.5227 184.781 94.48C184.311 94.4373 183.511 94.416 182.381 94.416H178.509C177.485 94.416 176.973 94.8427 176.973 95.696V97.744Z" fill="#C29465"/>
</svg>
