<svg width="192" height="122" viewBox="0 0 192 122" fill="none" xmlns="http://www.w3.org/2000/svg">
    <path fill-rule="evenodd" clip-rule="evenodd"
        d="M64.7761 0.264817C60.6207 0.906118 57.1661 1.91816 53.6065 3.53701C49.3718 5.46255 46.8239 7.13355 43.6464 10.0683L41.2039 12.3247L50.6639 21.5612L52.9099 19.5625C57.6911 15.3083 63.2057 13.2271 69.7041 13.2247C77.0485 13.2218 82.7971 15.6642 87.9886 20.9929C92.2866 25.4049 94.7738 31.1913 94.789 36.8169C94.8012 41.2185 94.0944 45.6818 96.9017 48.7068C98.4607 50.3864 104.106 52.8124 104.831 52.8124C105.411 52.8124 107.287 46.9459 107.89 43.2447C108.583 38.9986 108.179 31.7772 107.025 27.7681C103.18 14.4034 91.603 3.67126 77.9876 0.850279C74.315 0.0890938 67.7879 -0.199941 64.7761 0.264817ZM106.385 0.415082C103.352 0.898726 100.224 1.68701 99.3088 2.19816C99.1236 2.30121 100.496 3.87449 102.358 5.69452C104.219 7.51455 106.431 9.97711 107.273 11.1669L108.803 13.3298L111.008 13.1081C113.536 12.8543 119.099 13.8319 121.988 15.0377C124.406 16.0465 128.366 18.6733 129.99 20.3447L131.239 21.6293L140.752 12.3941L138.964 10.6003C131.218 2.82961 117.714 -1.39222 106.385 0.415082ZM75.6864 25.6344C73.5429 31.9488 73.133 38.7457 74.5048 45.2178C76.9738 56.8639 85.6743 67.2577 96.9017 71.9735C101.815 74.0374 104.649 74.6343 110.643 74.8691C114.859 75.0342 116.997 74.9217 119.71 74.3913C134.187 71.5608 145.868 60.7798 149.675 46.7353C150.238 44.6595 150.612 41.6361 150.766 37.9246L151 32.2748L117.356 32.4895L117.119 42.5484H126.831C138.012 42.5484 137.365 42.2396 135.509 46.686C132.594 53.6697 125.985 59.3178 118.527 61.1998C115.274 62.0201 109.192 62.0288 105.992 61.2175C99.3931 59.5436 92.8892 54.4494 90.0204 48.7068C88.1818 45.0257 87.2047 41.5125 87.2047 38.5819C87.2047 33.5447 88.4774 30.2873 85.0962 27.1522C82.8186 25.0403 77.98 22.4307 77.2568 22.4307C76.9911 22.4307 76.2843 23.8722 75.6864 25.6344ZM31.234 37.9246C31.3901 41.703 31.7612 44.6628 32.3541 46.8593C36.0853 60.6858 47.7166 71.4672 61.9904 74.3309C67.9169 75.5199 75.9111 75.0954 81.6505 73.2872L83.0547 72.8447L79.5158 69.2949C77.5697 67.3427 75.3401 64.8678 74.5613 63.795L73.1456 61.8448H69.5881C61.5172 61.8448 54.4284 58.367 49.6594 52.0673C47.5889 49.3321 45.4563 44.9169 45.4563 43.365C45.4563 42.5734 45.7545 42.5484 55.1685 42.5484H64.8807L64.6437 32.4895L31 32.2748L31.234 37.9246Z"
        fill="black" />
    <path
        d="M8.096 106C6.58133 106 5.39733 105.787 4.544 105.36C3.69067 104.933 3.09333 104.293 2.752 103.44C2.41067 102.587 2.24 101.531 2.24 100.272V93.136C2.24 91.088 2.69867 89.584 3.616 88.624C4.53333 87.6427 6.02667 87.152 8.096 87.152H17.728C19.2 87.152 20.32 87.2373 21.088 87.408C21.8773 87.5573 22.272 87.7173 22.272 87.888L21.632 90.544C21.2693 90.48 20.192 90.416 18.4 90.352C16.6293 90.2667 14.048 90.224 10.656 90.224H9.024C7.31733 90.224 6.464 90.9813 6.464 92.496V100.656C6.464 101.381 6.64533 101.947 7.008 102.352C7.392 102.736 8.064 102.928 9.024 102.928H10.336C12.384 102.928 14.112 102.917 15.52 102.896C16.928 102.853 18.0907 102.821 19.008 102.8V98.448L17.088 98.48L12.896 98.8V95.664H23.2V104.656L23.52 105.328C23.52 105.499 23.072 105.659 22.176 105.808C21.28 105.936 19.7653 106 17.632 106H8.096ZM27.6775 106V88.272L27.3575 85.712H31.5815V106H27.6775ZM39.324 106C37.8947 106 36.828 105.712 36.124 105.136C35.4413 104.56 35.1 103.621 35.1 102.32V95.76C35.1 95.44 35.1213 95.056 35.164 94.608C35.228 94.1387 35.3773 93.68 35.612 93.232C35.868 92.784 36.284 92.4107 36.86 92.112C37.4573 91.8133 38.2787 91.664 39.324 91.664H48.156C49.2227 91.664 50.044 91.8133 50.62 92.112C51.196 92.4107 51.6013 92.784 51.836 93.232C52.092 93.68 52.2413 94.1387 52.284 94.608C52.348 95.056 52.38 95.44 52.38 95.76V101.904C52.38 102.288 52.348 102.715 52.284 103.184C52.2413 103.653 52.092 104.101 51.836 104.528C51.58 104.955 51.164 105.307 50.588 105.584C50.012 105.861 49.2013 106 48.156 106H39.324ZM40.54 103.248H46.94C47.9853 103.248 48.508 102.821 48.508 101.968V95.696C48.508 94.8427 47.9853 94.416 46.94 94.416H40.54C39.516 94.416 39.004 94.8427 39.004 95.696V101.968C39.004 102.821 39.516 103.248 40.54 103.248ZM55.8888 106V85.712H59.7928V92.048C60.7101 91.9413 61.7874 91.856 63.0248 91.792C64.2834 91.7067 65.7128 91.664 67.3128 91.664H68.9448C70.0114 91.664 70.8328 91.8027 71.4088 92.08C71.9848 92.3573 72.3901 92.7093 72.6248 93.136C72.8808 93.5627 73.0301 94.0107 73.0728 94.48C73.1368 94.9493 73.1688 95.376 73.1688 95.76V101.904C73.1688 102.224 73.1368 102.619 73.0728 103.088C73.0301 103.536 72.8808 103.984 72.6248 104.432C72.3901 104.88 71.9848 105.253 71.4088 105.552C70.8328 105.851 70.0114 106 68.9448 106H67.3128C65.5421 106 63.9954 105.957 62.6728 105.872C61.3501 105.765 60.2514 105.659 59.3768 105.552L58.5128 106H55.8888ZM60.7848 103.248H67.7288C68.7528 103.248 69.2648 102.821 69.2648 101.968V95.696C69.2861 95.2267 69.1901 94.896 68.9768 94.704C68.7634 94.512 68.3474 94.416 67.7288 94.416H66.1288C64.7634 94.416 63.5474 94.448 62.4808 94.512C61.4354 94.5547 60.5394 94.608 59.7928 94.672V102.256C59.7928 102.704 59.8354 102.981 59.9208 103.088C60.0274 103.195 60.3154 103.248 60.7848 103.248ZM80.8293 106C79.2079 106 78.0346 105.627 77.3093 104.88C76.5839 104.112 76.2213 103.067 76.2213 101.744C76.2213 100.357 76.5946 99.2907 77.3413 98.544C78.1093 97.7973 79.2719 97.424 80.8293 97.424H82.4613C84.0613 97.424 85.5013 97.4667 86.7813 97.552C88.0613 97.6373 89.1173 97.7227 89.9493 97.808V95.696C89.9493 95.504 89.9279 95.312 89.8853 95.12C89.8426 94.9067 89.7146 94.736 89.5013 94.608C89.2879 94.48 88.9253 94.416 88.4133 94.416H86.8133C84.4879 94.416 82.5466 94.4587 80.9893 94.544C79.4319 94.608 78.3759 94.672 77.8213 94.736L77.4693 92.304C77.4693 92.0053 78.2799 91.824 79.9013 91.76C81.5226 91.696 84.2319 91.664 88.0293 91.664H89.6293C90.6959 91.664 91.5173 91.8133 92.0933 92.112C92.6693 92.4107 93.0746 92.784 93.3093 93.232C93.5653 93.68 93.7146 94.1387 93.7573 94.608C93.8213 95.056 93.8533 95.44 93.8533 95.76V106H91.2292L89.9813 105.36C89.0853 105.509 88.0079 105.659 86.7493 105.808C85.4906 105.936 84.0506 106 82.4293 106H80.8293ZM81.6613 103.248H88.9893C89.4586 103.248 89.7359 103.205 89.8213 103.12C89.9066 103.035 89.9493 102.768 89.9493 102.32V99.856H81.6613C81.0853 99.856 80.6799 99.9947 80.4453 100.272C80.2319 100.549 80.1253 100.987 80.1253 101.584C80.1253 102.181 80.2533 102.608 80.5093 102.864C80.7653 103.12 81.1493 103.248 81.6613 103.248ZM97.865 106V88.272L97.545 85.712H101.769V106H97.865ZM118.815 106C117.3 106 116.116 105.787 115.263 105.36C114.409 104.933 113.812 104.293 113.471 103.44C113.129 102.587 112.959 101.531 112.959 100.272V93.136C112.959 91.088 113.417 89.584 114.335 88.624C115.252 87.6427 116.745 87.152 118.815 87.152H128.447C129.919 87.152 131.039 87.2373 131.807 87.408C132.596 87.5573 132.991 87.7173 132.991 87.888L132.351 90.544C131.988 90.48 130.911 90.416 129.119 90.352C127.348 90.2667 124.767 90.224 121.375 90.224H119.743C118.036 90.224 117.183 90.9813 117.183 92.496V100.656C117.183 101.381 117.364 101.947 117.727 102.352C118.111 102.736 118.783 102.928 119.743 102.928H121.055C123.103 102.928 124.831 102.917 126.239 102.896C127.647 102.853 128.809 102.821 129.727 102.8V98.448L127.807 98.48L123.615 98.8V95.664H133.919V104.656L134.239 105.328C134.239 105.499 133.791 105.659 132.895 105.808C131.999 105.936 130.484 106 128.351 106H118.815ZM142.204 106C140.583 106 139.41 105.627 138.684 104.88C137.959 104.112 137.596 103.067 137.596 101.744C137.596 100.357 137.97 99.2907 138.716 98.544C139.484 97.7973 140.647 97.424 142.204 97.424H143.836C145.436 97.424 146.876 97.4667 148.156 97.552C149.436 97.6373 150.492 97.7227 151.324 97.808V95.696C151.324 95.504 151.303 95.312 151.26 95.12C151.218 94.9067 151.09 94.736 150.876 94.608C150.663 94.48 150.3 94.416 149.788 94.416H148.188C145.863 94.416 143.922 94.4587 142.364 94.544C140.807 94.608 139.751 94.672 139.196 94.736L138.844 92.304C138.844 92.0053 139.655 91.824 141.276 91.76C142.898 91.696 145.607 91.664 149.404 91.664H151.004C152.071 91.664 152.892 91.8133 153.468 92.112C154.044 92.4107 154.45 92.784 154.684 93.232C154.94 93.68 155.09 94.1387 155.132 94.608C155.196 95.056 155.228 95.44 155.228 95.76V106H152.604L151.356 105.36C150.46 105.509 149.383 105.659 148.124 105.808C146.866 105.936 145.426 106 143.804 106H142.204ZM143.036 103.248H150.364C150.834 103.248 151.111 103.205 151.196 103.12C151.282 103.035 151.324 102.768 151.324 102.32V99.856H143.036C142.46 99.856 142.055 99.9947 141.82 100.272C141.607 100.549 141.5 100.987 141.5 101.584C141.5 102.181 141.628 102.608 141.884 102.864C142.14 103.12 142.524 103.248 143.036 103.248ZM164.488 106C162.867 106 161.757 105.659 161.16 104.976C160.563 104.293 160.264 103.269 160.264 101.904V94.416H157.64V91.664H158.984C159.389 91.664 159.677 91.6 159.848 91.472C160.04 91.344 160.179 91.088 160.264 90.704L160.904 87.28H164.168V91.664H170.824V94.416H164.168V101.936C164.168 102.469 164.296 102.821 164.552 102.992C164.808 103.163 165.192 103.248 165.704 103.248H170.216L170.536 105.68C170.088 105.744 169.405 105.819 168.488 105.904C167.571 105.968 166.568 106 165.48 106H164.488ZM177.293 106C176.226 106 175.405 105.861 174.829 105.584C174.253 105.307 173.837 104.955 173.581 104.528C173.346 104.101 173.197 103.653 173.133 103.184C173.09 102.715 173.069 102.288 173.069 101.904V95.76C173.069 95.44 173.09 95.056 173.133 94.608C173.197 94.1387 173.346 93.68 173.581 93.232C173.837 92.784 174.253 92.4107 174.829 92.112C175.426 91.8133 176.247 91.664 177.293 91.664H184.173C185.581 91.664 186.679 91.8027 187.469 92.08C188.279 92.336 188.845 92.7627 189.165 93.36C189.506 93.9573 189.677 94.7573 189.677 95.76V100.496H184.077C182.157 100.496 180.589 100.453 179.373 100.368C178.178 100.283 177.378 100.229 176.973 100.208V101.968C176.951 102.821 177.463 103.248 178.509 103.248H180.141C181.293 103.248 182.413 103.237 183.501 103.216C184.61 103.173 185.623 103.131 186.541 103.088C187.458 103.024 188.194 102.971 188.749 102.928L190.029 105.008C190.029 105.669 187.927 106 183.725 106H177.293ZM176.973 97.744H185.773V95.696C185.773 95.2693 185.719 94.9707 185.613 94.8C185.527 94.6293 185.25 94.5227 184.781 94.48C184.311 94.4373 183.511 94.416 182.381 94.416H178.509C177.485 94.416 176.973 94.8427 176.973 95.696V97.744Z"
        fill="black" />
</svg>
