<svg width="192" height="122" fill="none" xmlns="http://www.w3.org/2000/svg"><path fill-rule="evenodd" clip-rule="evenodd" d="M64.776.265c-4.155.641-7.61 1.653-11.17 3.272-4.234 1.926-6.782 3.597-9.96 6.531l-2.442 2.257 9.46 9.236 2.246-1.998c4.781-4.255 10.296-6.336 16.794-6.338 7.345-.003 13.093 2.44 18.285 7.768 4.298 4.412 6.785 10.198 6.8 15.824.012 4.401-.695 8.865 2.113 11.89 1.559 1.68 7.204 4.105 7.929 4.105.58 0 2.456-5.866 3.059-9.567.693-4.246.289-11.468-.865-15.477C103.18 14.403 91.603 3.671 77.988.85 74.315.09 67.788-.2 64.776.265zm41.609.15c-3.033.484-6.161 1.272-7.076 1.783-.185.103 1.187 1.676 3.049 3.497 1.861 1.82 4.073 4.282 4.915 5.472l1.53 2.163 2.205-.222c2.528-.254 8.091.724 10.98 1.93 2.418 1.009 6.378 3.635 8.002 5.307l1.249 1.284 9.513-9.235-1.788-1.794c-7.746-7.77-21.25-11.992-32.579-10.185zm-30.699 25.22c-2.143 6.314-2.553 13.11-1.181 19.583 2.469 11.646 11.17 22.04 22.397 26.755 4.913 2.064 7.747 2.661 13.741 2.896 4.216.165 6.354.053 9.067-.478 14.477-2.83 26.158-13.611 29.965-27.656.563-2.075.937-5.099 1.091-8.81l.234-5.65-33.644.215-.237 10.058h9.712c11.181 0 10.534-.308 8.678 4.138-2.915 6.984-9.524 12.632-16.982 14.514-3.253.82-9.335.829-12.535.017-6.599-1.673-13.103-6.768-15.972-12.51-1.838-3.681-2.815-7.194-2.815-10.125 0-5.037 1.272-8.295-2.109-11.43-2.277-2.112-7.116-4.721-7.84-4.721-.265 0-.972 1.441-1.57 3.203zm-44.452 12.29c.156 3.778.527 6.738 1.12 8.934 3.731 13.827 15.363 24.608 29.636 27.472 5.927 1.189 13.921.764 19.66-1.044l1.405-.442-3.54-3.55c-1.945-1.952-4.175-4.427-4.954-5.5l-1.415-1.95h-3.558c-8.07 0-15.16-3.478-19.929-9.778-2.07-2.735-4.203-7.15-4.203-8.702 0-.792.298-.817 9.712-.817h9.713l-.237-10.059L31 32.276l.234 5.65z" fill="#000"/><path d="M8.096 106c-1.515 0-2.699-.213-3.552-.64-.853-.427-1.45-1.067-1.792-1.92-.341-.853-.512-1.909-.512-3.168v-7.136c0-2.048.459-3.552 1.376-4.512.917-.981 2.41-1.472 4.48-1.472h9.632c1.472 0 2.592.085 3.36.256.79.15 1.184.31 1.184.48l-.64 2.656c-.363-.064-1.44-.128-3.232-.192-1.77-.085-4.352-.128-7.744-.128H9.024c-1.707 0-2.56.757-2.56 2.272v8.16c0 .725.181 1.291.544 1.696.384.384 1.056.576 2.016.576h1.312c2.048 0 3.776-.011 5.184-.032 1.408-.043 2.57-.075 3.488-.096v-4.352l-1.92.032-4.192.32v-3.136H23.2v8.992l.32.672c0 .171-.448.331-1.344.48-.896.128-2.41.192-4.544.192H8.096zm19.581 0V88.272l-.32-2.56h4.224V106h-3.904zm11.647 0c-1.43 0-2.496-.288-3.2-.864-.683-.576-1.024-1.515-1.024-2.816v-6.56c0-.32.021-.704.064-1.152.064-.47.213-.928.448-1.376.256-.448.672-.821 1.248-1.12.597-.299 1.419-.448 2.464-.448h8.832c1.067 0 1.888.15 2.464.448.576.299.981.672 1.216 1.12.256.448.405.907.448 1.376.064.448.096.832.096 1.152v6.144c0 .384-.032.811-.096 1.28a3.142 3.142 0 01-.448 1.344c-.256.427-.672.779-1.248 1.056s-1.387.416-2.432.416h-8.832zm1.216-2.752h6.4c1.045 0 1.568-.427 1.568-1.28v-6.272c0-.853-.523-1.28-1.568-1.28h-6.4c-1.024 0-1.536.427-1.536 1.28v6.272c0 .853.512 1.28 1.536 1.28zM55.889 106V85.712h3.904v6.336a51.384 51.384 0 013.232-.256 64.062 64.062 0 014.288-.128h1.632c1.066 0 1.888.139 2.464.416.576.277.981.63 1.216 1.056.256.427.405.875.448 1.344.064.47.096.896.096 1.28v6.144c0 .32-.032.715-.096 1.184a3.34 3.34 0 01-.448 1.344c-.235.448-.64.821-1.216 1.12-.576.299-1.398.448-2.464.448h-1.632a73.43 73.43 0 01-4.64-.128 83.563 83.563 0 01-3.296-.32l-.864.448h-2.624zm4.896-2.752h6.944c1.024 0 1.536-.427 1.536-1.28v-6.272c.021-.47-.075-.8-.288-.992-.214-.192-.63-.288-1.248-.288h-1.6c-1.366 0-2.582.032-3.648.096a61.53 61.53 0 00-2.688.16v7.584c0 .448.042.725.128.832.106.107.394.16.864.16zM80.829 106c-1.621 0-2.794-.373-3.52-1.12-.725-.768-1.088-1.813-1.088-3.136 0-1.387.374-2.453 1.12-3.2.768-.747 1.93-1.12 3.488-1.12h1.632c1.6 0 3.04.043 4.32.128 1.28.085 2.336.17 3.168.256v-2.112c0-.192-.021-.384-.064-.576-.042-.213-.17-.384-.384-.512-.213-.128-.576-.192-1.088-.192h-1.6c-2.325 0-4.266.043-5.824.128-1.557.064-2.613.128-3.168.192l-.352-2.432c0-.299.81-.48 2.432-.544 1.622-.064 4.33-.096 8.128-.096h1.6c1.067 0 1.888.15 2.464.448.576.299.982.672 1.216 1.12.256.448.406.907.448 1.376.064.448.096.832.096 1.152V106H91.23l-1.248-.64c-.896.149-1.973.299-3.232.448-1.258.128-2.698.192-4.32.192h-1.6zm.832-2.752h7.328c.47 0 .747-.043.832-.128.086-.085.128-.352.128-.8v-2.464h-8.288c-.576 0-.981.139-1.216.416-.213.277-.32.715-.32 1.312 0 .597.128 1.024.384 1.28s.64.384 1.152.384zM97.865 106V88.272l-.32-2.56h4.224V106h-3.904zm20.95 0c-1.515 0-2.699-.213-3.552-.64-.854-.427-1.451-1.067-1.792-1.92-.342-.853-.512-1.909-.512-3.168v-7.136c0-2.048.458-3.552 1.376-4.512.917-.981 2.41-1.472 4.48-1.472h9.632c1.472 0 2.592.085 3.36.256.789.15 1.184.31 1.184.48l-.64 2.656c-.363-.064-1.44-.128-3.232-.192-1.771-.085-4.352-.128-7.744-.128h-1.632c-1.707 0-2.56.757-2.56 2.272v8.16c0 .725.181 1.291.544 1.696.384.384 1.056.576 2.016.576h1.312c2.048 0 3.776-.011 5.184-.032 1.408-.043 2.57-.075 3.488-.096v-4.352l-1.92.032-4.192.32v-3.136h10.304v8.992l.32.672c0 .171-.448.331-1.344.48-.896.128-2.411.192-4.544.192h-9.536zm23.389 0c-1.621 0-2.794-.373-3.52-1.12-.725-.768-1.088-1.813-1.088-3.136 0-1.387.374-2.453 1.12-3.2.768-.747 1.931-1.12 3.488-1.12h1.632c1.6 0 3.04.043 4.32.128 1.28.085 2.336.17 3.168.256v-2.112c0-.192-.021-.384-.064-.576-.042-.213-.17-.384-.384-.512-.213-.128-.576-.192-1.088-.192h-1.6c-2.325 0-4.266.043-5.824.128-1.557.064-2.613.128-3.168.192l-.352-2.432c0-.299.811-.48 2.432-.544 1.622-.064 4.331-.096 8.128-.096h1.6c1.067 0 1.888.15 2.464.448.576.299.982.672 1.216 1.12.256.448.406.907.448 1.376.064.448.096.832.096 1.152V106h-2.624l-1.248-.64c-.896.149-1.973.299-3.232.448-1.258.128-2.698.192-4.32.192h-1.6zm.832-2.752h7.328c.47 0 .747-.043.832-.128.086-.085.128-.352.128-.8v-2.464h-8.288c-.576 0-.981.139-1.216.416-.213.277-.32.715-.32 1.312 0 .597.128 1.024.384 1.28s.64.384 1.152.384zM164.488 106c-1.621 0-2.731-.341-3.328-1.024s-.896-1.707-.896-3.072v-7.488h-2.624v-2.752h1.344c.405 0 .693-.064.864-.192.192-.128.331-.384.416-.768l.64-3.424h3.264v4.384h6.656v2.752h-6.656v7.52c0 .533.128.885.384 1.056.256.171.64.256 1.152.256h4.512l.32 2.432c-.448.064-1.131.139-2.048.224-.917.064-1.92.096-3.008.096h-.992zm12.805 0c-1.067 0-1.888-.139-2.464-.416-.576-.277-.992-.629-1.248-1.056a3.845 3.845 0 01-.448-1.344 14.117 14.117 0 01-.064-1.28V95.76c0-.32.021-.704.064-1.152.064-.47.213-.928.448-1.376.256-.448.672-.821 1.248-1.12.597-.299 1.418-.448 2.464-.448h6.88c1.408 0 2.506.139 3.296.416.81.256 1.376.683 1.696 1.28.341.597.512 1.397.512 2.4v4.736h-5.6c-1.92 0-3.488-.043-4.704-.128a160.13 160.13 0 00-2.4-.16v1.76c-.022.853.49 1.28 1.536 1.28h1.632c1.152 0 2.272-.011 3.36-.032 1.109-.043 2.122-.085 3.04-.128a308.34 308.34 0 002.208-.16l1.28 2.08c0 .661-2.102.992-6.304.992h-6.432zm-.32-8.256h8.8v-2.048c0-.427-.054-.725-.16-.896-.086-.17-.363-.277-.832-.32-.47-.043-1.27-.064-2.4-.064h-3.872c-1.024 0-1.536.427-1.536 1.28v2.048z" fill="#000"/></svg>